<svg width="426" height="426" viewBox="0 0 426 426" fill="none" xmlns="http://www.w3.org/2000/svg">
<path d="M270.002 329.726C270.002 337.633 221.205 344.044 161.011 344.044C100.817 344.044 52.02 337.633 52.02 329.726C52.02 321.818 100.817 315.407 161.011 315.407C221.205 315.407 270.002 321.817 270.002 329.726Z" fill="#B2B2B2"/>
<path d="M369.02 358.055C369.02 368.214 325.923 376.451 272.759 376.451C219.596 376.451 176.499 368.214 176.499 358.055C176.499 347.895 219.596 339.658 272.759 339.658C325.922 339.657 369.02 347.895 369.02 358.055Z" fill="#B2B2B2"/>
<path d="M243.731 313.022C243.731 323.231 235.453 331.505 225.245 331.505H88.04C77.833 331.505 69.556 323.23 69.556 313.022V81.814C69.556 71.605 77.833 63.331 88.04 63.331H225.245C235.453 63.331 243.731 71.605 243.731 81.814V313.022Z" fill="#1B1B1A"/>
<path d="M231.091 82.078H82.196V301.346H231.091V82.078Z" fill="white"/>
<path d="M178.104 315.406C178.104 318.896 175.276 321.723 171.786 321.723H144.073C140.585 321.723 137.757 318.896 137.757 315.406C137.757 311.92 140.585 309.09 144.073 309.09H171.786C175.276 309.09 178.104 311.92 178.104 315.406Z" fill="black"/>
<path d="M175.387 315.406C175.387 318.107 173.199 320.3 170.497 320.3H145.029C142.329 320.3 140.137 318.108 140.137 315.406C140.137 312.707 142.329 310.516 145.029 310.516H170.497C173.199 310.517 175.387 312.707 175.387 315.406Z" fill="#3C3C3B"/>
<path d="M168.357 71.863C168.357 73.888 166.717 74.702 164.689 74.702H148.597C146.571 74.702 144.928 73.889 144.928 71.863C144.928 69.838 146.571 69.021 148.597 69.021H164.689C166.717 69.021 168.357 69.838 168.357 71.863Z" fill="black"/>
<path d="M166.778 71.863C166.778 73.431 165.507 73.876 163.94 73.876H149.152C147.585 73.876 146.311 73.432 146.311 71.863C146.311 70.295 147.585 69.851 149.152 69.851H163.94C165.507 69.852 166.778 70.295 166.778 71.863Z" fill="#3C3C3B"/>
<path d="M213.885 174.188C213.883 174.094 213.881 174 213.878 173.905H213.404L158.443 141.641L99.915 173.905H99.41C99.407 174.001 99.405 174.094 99.402 174.188H99.4V174.292V185.545V238.24C99.4 245.351 105.164 251.115 112.275 251.115H201.013C208.123 251.115 213.888 245.351 213.888 238.24V185.545V174.292V174.188H213.885Z" fill="#1D1C18"/>
<path d="M213.888 173.904H99.41V175.703H213.888V173.904Z" fill="#909090"/>
<path d="M194.511 141.717H117.811V237.382H194.511V141.717Z" fill="#DADADA"/>
<path d="M183.993 157.839H127.36V159.756H183.993V157.839Z" fill="white"/>
<path d="M183.993 161.007H127.36V162.923H183.993V161.007Z" fill="white"/>
<path d="M183.993 164.174H127.36V166.09H183.993V164.174Z" fill="white"/>
<path d="M183.993 177.556H127.36V179.472H183.993V177.556Z" fill="white"/>
<path d="M183.993 180.725H127.36V182.64H183.993V180.725Z" fill="white"/>
<path d="M183.993 183.891H127.36V185.809H183.993V183.891Z" fill="white"/>
<path d="M183.993 197.768H127.36V199.685H183.993V197.768Z" fill="white"/>
<path d="M183.993 200.938H127.36V202.854H183.993V200.938Z" fill="white"/>
<path d="M183.993 204.104H127.36V206.021H183.993V204.104Z" fill="white"/>
<path d="M183.993 217.986H127.36V219.902H183.993V217.986Z" fill="white"/>
<path d="M183.993 221.154H127.36V223.069H183.993V221.154Z" fill="white"/>
<path d="M183.993 224.32H127.36V226.236H183.993V224.32Z" fill="white"/>
<path d="M213.888 174.291V238.239C213.888 245.35 208.123 251.114 201.013 251.114H112.275C105.165 251.114 99.4 245.35 99.4 238.239V174.291L156.643 212.702L213.888 174.291Z" fill="#909090"/>
<path d="M156.643 212.702L99.4 174.291V177.128L156.643 215.541L213.888 177.128V174.291L156.643 212.702Z" fill="white"/>
<path d="M340.671 207.393L340.574 202.43C340.574 202.43 340.303 198.66 337.031 196.454C337.031 196.454 327.109 190.347 326.304 166.631C326.304 166.631 324.964 133.678 286.584 134.385L268.707 134.719" stroke="#2C343F" stroke-width="2.8756" stroke-miterlimit="10" stroke-linecap="round" stroke-linejoin="round"/>
<path d="M207.489 209.86L207.399 204.895C207.399 204.895 207.529 201.119 210.715 198.794C210.715 198.794 220.406 192.325 220.332 168.595C220.332 168.595 220.451 135.613 258.83 134.9L276.709 134.57" stroke="#2C343F" stroke-width="2.8756" stroke-miterlimit="10" stroke-linecap="round" stroke-linejoin="round"/>
<path d="M309.696 204.791L232.726 206.216L234.285 290.474L311.255 289.05L309.696 204.791Z" fill="#474747"/>
<path d="M318.778 280.734C299.517 278.92 289.948 273.413 288.311 272.388L254.084 273.023C252.482 274.108 243.122 279.965 223.941 282.492C223.941 282.492 187.335 284.541 189.591 350.944C189.591 350.944 217.386 362.865 272.848 361.732C328.307 360.809 355.643 347.863 355.643 347.863C355.44 281.424 318.778 280.734 318.778 280.734Z" fill="#F7C7AD"/>
<path d="M223.941 282.492C223.941 282.492 187.335 284.541 189.591 350.944C189.591 350.944 217.386 362.865 272.848 361.732C328.307 360.809 355.643 347.863 355.643 347.863C355.44 281.423 318.777 280.734 318.777 280.734C318.777 280.734 283.054 278.864 271.593 294.268C271.593 294.268 259.93 275.799 223.941 282.492Z" fill="white"/>
<path d="M288.314 253.916L253.367 254.563L253.837 279.978L288.784 279.331L288.314 253.916Z" fill="#F7C7AD"/>
<path d="M253.514 261.809V261.815C253.908 262.266 254.303 262.712 254.727 263.13C255.841 264.236 256.991 265.302 258.234 266.264C258.276 266.299 258.306 266.322 258.344 266.353C258.741 266.631 259.145 266.906 259.557 267.172C260.179 267.578 260.81 267.982 261.461 268.347C262.401 268.884 263.355 269.4 264.336 269.863C264.649 269.978 265.573 270.341 265.852 270.432C266.801 270.734 267.747 271.029 268.715 271.264C269.711 271.505 270.702 271.743 271.707 271.917C271.447 271.872 274.358 272.305 273.662 272.253C276.018 272.473 278.392 272.608 280.763 272.518C281.776 272.481 282.797 272.442 283.808 272.343C284.133 272.311 285.642 272.058 285.795 272.054C286.759 271.824 287.709 271.539 288.649 271.216L288.327 253.917L253.379 254.565L253.513 261.734C253.614 261.883 253.643 261.938 253.514 261.809Z" fill="#DADADA"/>
<path d="M309.764 207.555C310.32 237.657 292.972 262.39 271.009 262.796C249.052 263.205 230.798 239.131 230.239 209.029C229.682 178.925 247.132 159.73 269.093 159.321C291.055 158.916 309.203 177.453 309.764 207.555Z" fill="#F7C7AD"/>
<path opacity="0.5" d="M248.354 184.092C248.362 184.024 248.376 183.956 248.387 183.885C253.882 177.182 261.566 173.365 270.121 173.21C287.278 172.89 301.462 187.371 301.896 210.889C302.186 226.561 296.259 240.362 287.196 247.928C287.196 247.928 235.093 242.692 248.354 184.092Z" fill="white"/>
<path d="M264.596 250.922C250.895 242.636 243.24 228.279 241.074 212.717C239.041 198.1 242.468 181.823 251.548 170.067C254.703 165.992 258.766 162.51 263.291 159.89C244.144 163.28 229.732 181.635 230.24 209.03C230.799 239.132 249.053 263.206 271.01 262.797C277.392 262.679 283.382 260.505 288.655 256.747C280.34 257.178 271.967 255.378 264.596 250.922Z" fill="#EDEDED"/>
<path d="M252.43 274.04C248.755 276.128 239.634 280.425 223.942 282.492C223.942 282.492 187.336 284.541 189.592 350.944C189.592 350.944 217.387 362.865 272.849 361.732C328.308 360.809 355.644 347.863 355.644 347.863C355.441 281.423 318.778 280.734 318.778 280.734C303.018 279.25 293.745 275.294 289.995 273.342C289.995 273.342 310.34 316.509 272.747 356.394C272.747 356.394 235.004 318.917 252.43 274.04Z" fill="#A855F7"/>
<path d="M241.329 305.839C241.346 305.924 241.362 306.008 241.383 306.092C241.532 306.771 241.692 307.446 241.853 308.119C241.956 308.072 242.052 308.027 242.152 307.984C241.869 307.282 241.593 306.563 241.329 305.839Z" fill="#00B1C3"/>
<path d="M318.778 280.734C303.018 279.25 293.745 275.294 289.995 273.342C289.995 273.342 310.34 316.509 272.747 356.394C272.747 356.394 235.004 318.916 252.43 274.04C248.755 276.128 239.634 280.425 223.942 282.492C223.942 282.492 218.171 298.461 231.243 312.314C231.243 312.314 236.737 309.224 239.743 310.02L229.274 318.012C229.274 318.012 232.335 348.176 265.476 361.868L282.129 361.559C282.129 361.559 310.377 347.153 314.655 310.339C314.655 310.339 311.954 307.391 303.719 304.99C303.719 304.99 308.709 303.188 314.536 303.933C314.535 303.935 325.217 298.069 318.778 280.734Z" fill="#A855F7"/>
<path d="M318.778 280.734C303.018 279.25 293.745 275.294 289.995 273.342C289.995 273.342 310.34 316.509 272.747 356.394C272.747 356.394 272.376 356.028 271.736 355.334C271.734 355.335 271.734 355.337 271.734 355.337C267.028 356.887 261.971 354.309 258.093 351.833C253.569 348.944 249.119 345.591 245.432 341.665C241.739 337.729 237.743 332.819 236.851 327.313C235.637 319.835 238.321 313.557 244.752 309.4C245.924 308.644 247.219 308.219 248.538 308.076C247.052 297.654 247.738 286.118 252.431 274.039C248.756 276.127 239.635 280.424 223.943 282.491C223.943 282.491 223.862 282.723 223.741 283.138C227.962 282.671 232.081 281.783 236.149 284.045C244.205 288.533 243.061 298.472 238.159 304.816C236.121 307.451 233.159 309.398 229.997 310.915C230.395 311.383 230.808 311.849 231.244 312.312C231.244 312.312 236.738 309.222 239.744 310.018L229.275 318.01C229.275 318.01 232.336 348.174 265.477 361.866L282.13 361.557C282.13 361.557 310.378 347.151 314.656 310.337C314.656 310.337 311.955 307.389 303.72 304.988C303.72 304.988 308.71 303.186 314.537 303.931C314.535 303.935 325.217 298.069 318.778 280.734Z" fill="#EDEDED"/>
<path d="M318.778 280.734C314.352 280.317 310.436 279.704 307.008 278.996C307.818 281.083 308.399 283.226 308.552 285.523C308.9 290.722 307.313 296.556 303.408 300.234C301.018 302.487 298.306 304.062 295.416 305.168C295.401 305.412 295.386 305.661 295.374 305.907C310.582 321.429 293.193 353.734 273.689 355.369C273.376 355.715 273.067 356.054 272.746 356.394C272.746 356.394 272.7 356.347 272.636 356.277L272.736 361.735L282.128 361.56C282.128 361.56 310.376 347.154 314.654 310.34C314.654 310.34 311.953 307.392 303.718 304.991C303.718 304.991 308.708 303.189 314.535 303.934C314.535 303.934 325.217 298.069 318.778 280.734Z" fill="#EDEDED"/>
<path d="M273.297 355.531L272.169 355.551L271.035 294.281L272.159 294.258L273.297 355.531Z" fill="#C6C6C6"/>
<path d="M252.43 274.04C252.43 274.04 236.619 280.074 244.676 299.68C244.676 299.68 246.079 278.71 271.951 301.525C271.951 301.525 273.32 283.88 263.537 280.323C263.537 280.323 252.517 278.871 252.43 274.04Z" fill="#DEDEDE"/>
<path d="M290.365 273.337C290.365 273.337 304.789 278.51 297.15 296.359C297.15 296.359 288.912 278.144 271.951 301.524C271.951 301.524 269.127 282.193 279.493 280.028C279.493 280.028 290.453 278.166 290.365 273.337Z" fill="#DEDEDE"/>
<path d="M245.734 160.216C245.734 160.216 273.219 197.75 305.348 206.546L302.912 265.734C302.912 265.734 303.96 276.786 291.153 282.574C291.153 282.574 314.138 288.256 318.373 271.833L315.209 199.68C315.209 199.68 308.225 124.608 245.734 160.216Z" fill="#6F6F6F"/>
<path d="M240.915 283.504L239.513 207.77C237.483 175.026 264.44 171.186 264.44 171.186L251.584 157.682C251.584 157.682 206.465 167.398 222.255 269.049C222.255 269.049 221.444 284.438 240.915 283.504Z" fill="#6F6F6F"/>
<path d="M251.182 163.981C251.182 163.981 252.127 163.215 253.96 162.132C254.885 161.607 256.013 160.96 257.374 160.351C258.049 160.031 258.784 159.73 259.558 159.404C260.342 159.105 261.17 158.797 262.054 158.526C262.931 158.232 263.867 157.99 264.838 157.733C265.32 157.597 265.829 157.516 266.336 157.411C266.845 157.303 267.361 157.203 267.894 157.134C270.014 156.784 272.309 156.688 274.681 156.801C275.278 156.848 275.876 156.897 276.479 156.945C277.082 157.043 277.683 157.141 278.293 157.239C278.906 157.321 279.506 157.482 280.113 157.64L281.028 157.879L281.484 158.001L281.927 158.159C282.527 158.377 283.123 158.595 283.726 158.814C284.321 159.04 284.89 159.346 285.469 159.619L286.336 160.042C286.622 160.189 286.887 160.37 287.165 160.532L288.814 161.543C290.883 163.061 292.872 164.716 294.469 166.642C294.878 167.115 295.291 167.58 295.687 168.058C296.039 168.559 296.395 169.055 296.745 169.551C297.091 170.052 297.46 170.531 297.775 171.038C298.074 171.555 298.367 172.066 298.661 172.575C298.954 173.08 299.241 173.585 299.528 174.083C299.767 174.603 300.007 175.114 300.248 175.621C300.705 176.643 301.214 177.613 301.543 178.623C301.905 179.615 302.256 180.583 302.595 181.517C302.878 182.466 303.122 183.393 303.374 184.276C303.606 185.163 303.885 185.993 304.022 186.818C304.179 187.636 304.324 188.411 304.467 189.137C304.597 189.866 304.759 190.537 304.835 191.175C304.912 191.81 304.98 192.397 305.042 192.922C305.173 193.974 305.238 194.805 305.299 195.368C305.35 195.931 305.375 196.231 305.375 196.231C305.375 196.231 305.267 195.948 305.072 195.414C304.884 194.879 304.59 194.1 304.256 193.105C304.091 192.61 303.902 192.061 303.699 191.461C303.473 190.87 303.233 190.233 302.972 189.549C302.445 188.195 301.905 186.653 301.175 185.034C300.819 184.221 300.465 183.369 300.072 182.503C299.649 181.652 299.211 180.774 298.765 179.874C298.346 178.956 297.797 178.084 297.282 177.173C297.024 176.719 296.762 176.26 296.501 175.795C296.204 175.354 295.904 174.91 295.605 174.458C295.306 174.013 295.004 173.561 294.7 173.105C294.392 172.653 294.031 172.242 293.699 171.803C293.359 171.372 293.016 170.938 292.674 170.499C292.3 170.093 291.927 169.685 291.549 169.276C290.066 167.611 288.325 166.192 286.528 164.887L285.117 164.004C284.877 163.861 284.652 163.697 284.404 163.571L283.664 163.204L282.922 162.834C282.675 162.715 282.44 162.566 282.177 162.478C281.665 162.274 281.154 162.072 280.644 161.869C278.579 161.162 276.473 160.592 274.362 160.368C272.255 160.133 270.183 160.025 268.201 160.155C266.224 160.258 264.336 160.46 262.607 160.774C259.144 161.372 256.285 162.225 254.293 162.862C253.3 163.203 252.515 163.46 251.989 163.668C251.466 163.874 251.182 163.981 251.182 163.981Z" fill="#C6C6C6"/>
<path d="M249.837 169.826C249.837 169.826 250.702 169.06 252.417 167.974C253.272 167.439 254.336 166.807 255.612 166.177C256.889 165.565 258.359 164.897 260.041 164.352C261.717 163.798 263.583 163.293 265.622 163.022C267.654 162.734 269.855 162.61 272.13 162.865C274.397 163.094 276.758 163.602 278.988 164.57L279.833 164.909C280.108 165.043 280.374 165.188 280.644 165.328C281.186 165.612 281.741 165.884 282.262 166.196C283.27 166.891 284.343 167.516 285.255 168.337C285.717 168.731 286.201 169.113 286.646 169.528L287.921 170.829L288.551 171.479C288.755 171.702 288.929 171.944 289.119 172.178C289.49 172.644 289.861 173.111 290.228 173.576C290.615 174.028 290.914 174.535 291.242 175.021C291.558 175.509 291.873 175.995 292.185 176.482L292.421 176.844L292.62 177.22C292.757 177.472 292.888 177.721 293.024 177.972C293.287 178.468 293.548 178.964 293.81 179.457C294.08 179.942 294.292 180.448 294.503 180.946C294.718 181.445 294.927 181.937 295.135 182.426C295.334 182.92 295.562 183.393 295.728 183.883C295.893 184.371 296.058 184.852 296.218 185.331C296.377 185.806 296.531 186.275 296.685 186.737C296.836 187.201 296.999 187.652 297.1 188.116C297.332 189.024 297.555 189.903 297.766 190.75C297.871 191.173 297.971 191.585 298.07 191.99C298.141 192.395 298.217 192.799 298.289 193.184C298.423 193.965 298.55 194.703 298.667 195.395C298.934 196.777 299.023 198.005 299.126 199.007C299.232 200.009 299.283 200.801 299.331 201.336C299.367 201.873 299.389 202.157 299.389 202.157C299.389 202.157 299.291 201.887 299.108 201.376C298.94 200.866 298.672 200.121 298.374 199.167C298.064 198.215 297.713 197.058 297.222 195.76C296.99 195.109 296.741 194.416 296.48 193.687C296.355 193.321 296.223 192.948 296.089 192.564C295.938 192.19 295.783 191.806 295.621 191.412C295.309 190.627 294.988 189.811 294.653 188.967C294.32 188.121 293.899 187.287 293.508 186.41C293.312 185.974 293.114 185.528 292.912 185.082C292.714 184.634 292.459 184.208 292.229 183.763C292 183.32 291.764 182.873 291.529 182.422C291.299 181.967 291.066 181.51 290.782 181.079C290.511 180.643 290.24 180.2 289.968 179.754L289.562 179.083L289.361 178.744L289.129 178.426C288.82 178 288.516 177.572 288.206 177.143C287.893 176.712 287.613 176.258 287.255 175.87C286.912 175.465 286.567 175.059 286.223 174.651C286.051 174.45 285.887 174.239 285.703 174.045L285.143 173.479L284.016 172.35C283.624 171.994 283.203 171.676 282.798 171.329C282.019 170.603 281.109 170.076 280.256 169.465C279.808 169.199 279.342 168.961 278.893 168.698C278.666 168.573 278.444 168.439 278.211 168.321L277.5 168.013C277.021 167.818 276.563 167.574 276.077 167.415C275.592 167.252 275.108 167.087 274.625 166.925C274.145 166.762 273.642 166.678 273.15 166.552C272.907 166.491 272.665 166.432 272.42 166.374C272.172 166.335 271.925 166.295 271.683 166.255C271.188 166.189 270.7 166.072 270.208 166.044C269.718 166.003 269.227 165.962 268.746 165.919C268.259 165.891 267.778 165.901 267.299 165.888C266.823 165.865 266.352 165.888 265.883 165.912C264.012 165.962 262.234 166.212 260.596 166.51C258.953 166.793 257.466 167.198 256.143 167.562C254.829 167.946 253.681 168.32 252.749 168.66C251.82 169.014 251.083 169.284 250.586 169.499C250.102 169.713 249.837 169.826 249.837 169.826Z" fill="#C6C6C6"/>
<path d="M245.656 173.588C245.656 173.588 245.267 173.791 244.633 174.288C243.995 174.78 243.127 175.584 242.17 176.714C241.212 177.847 240.21 179.345 239.284 181.163C238.382 182.998 237.56 185.157 236.953 187.59C236.355 190.028 235.93 192.722 235.731 195.6C235.549 198.477 235.563 201.533 235.747 204.691C235.931 208.002 236.037 211.293 236.119 214.709C236.198 218.111 236.281 221.565 236.365 225.02C236.404 228.47 236.444 231.929 236.483 235.33C236.523 238.731 236.483 242.079 236.491 245.318C236.503 248.556 236.423 251.689 236.384 254.658C236.356 257.631 236.264 260.437 236.191 263.031C236.046 268.215 235.835 272.542 235.667 275.568C235.498 278.592 235.356 280.324 235.356 280.324C235.356 280.324 235.149 278.601 234.868 275.582C234.59 272.562 234.217 268.253 233.882 263.075C233.713 260.484 233.518 257.68 233.377 254.717C233.229 251.749 233.032 248.621 232.927 245.386C232.812 242.145 232.649 238.801 232.561 235.401C232.473 232.003 232.389 228.547 232.301 225.095C232.254 221.64 232.208 218.184 232.166 214.786C232.094 211.401 232.153 207.997 232.108 204.836C232.083 204.009 232.083 203.189 232.098 202.368C232.103 201.556 232.126 200.747 232.175 199.946C232.265 198.35 232.433 196.788 232.64 195.274C232.848 193.76 233.134 192.295 233.449 190.891C233.812 189.493 234.19 188.15 234.658 186.891C235.54 184.363 236.687 182.16 237.897 180.357C239.106 178.545 240.4 177.144 241.57 176.129C242.731 175.098 243.789 174.479 244.511 174.096C245.239 173.717 245.656 173.588 245.656 173.588Z" fill="#C6C6C6"/>
<path d="M237.024 177.508C237.024 177.508 236.667 177.696 236.075 178.159C235.484 178.618 234.675 179.36 233.781 180.415C232.896 181.465 231.964 182.861 231.102 184.549C230.262 186.254 229.502 188.26 228.936 190.524C228.379 192.786 227.985 195.293 227.802 197.965C227.63 200.643 227.643 203.48 227.813 206.414C227.987 209.491 228.085 212.552 228.158 215.724C228.235 218.887 228.312 222.095 228.39 225.308C228.424 228.518 228.463 231.727 228.5 234.892C228.534 238.048 228.5 241.16 228.503 244.173C228.518 247.184 228.445 250.095 228.407 252.856C228.38 255.617 228.295 258.227 228.226 260.637C228.092 265.457 227.898 269.474 227.739 272.289C227.671 273.694 227.577 274.799 227.532 275.554C227.479 276.307 227.451 276.708 227.451 276.708C227.451 276.708 227.409 276.307 227.33 275.557C227.255 274.807 227.117 273.702 226.999 272.302C226.737 269.495 226.393 265.489 226.082 260.677C225.925 258.272 225.74 255.666 225.608 252.907C225.473 250.151 225.291 247.243 225.194 244.233C225.082 241.225 224.933 238.117 224.852 234.958C224.771 231.796 224.687 228.59 224.609 225.377C224.565 222.166 224.525 218.956 224.485 215.793C224.417 212.652 224.474 209.487 224.432 206.547C224.359 203.468 224.519 200.475 224.929 197.662C225.121 196.256 225.386 194.891 225.68 193.587C226.015 192.29 226.369 191.039 226.802 189.872C227.622 187.519 228.684 185.474 229.812 183.795C230.938 182.113 232.14 180.81 233.228 179.87C234.305 178.911 235.287 178.335 235.957 177.979C236.637 177.625 237.024 177.508 237.024 177.508Z" fill="#C6C6C6"/>
<path d="M343.025 208.984C343.063 210.87 341.553 212.425 339.659 212.46C337.762 212.494 336.197 210.994 336.159 209.11C336.128 207.224 337.636 205.667 339.533 205.632C341.424 205.599 342.991 207.097 343.025 208.984Z" fill="#636363"/>
<path d="M312.102 199.736C312.016 194.917 315.868 190.938 320.714 190.847C325.559 190.759 329.557 194.591 329.648 199.413L330.015 219.044C330.101 223.86 326.245 227.839 321.401 227.931C316.557 228.022 312.556 224.188 312.467 219.369L312.102 199.736Z" fill="#464F5B"/>
<path d="M322.682 200.009C326.562 204.625 327.177 210.061 326.206 215.836C325.372 220.783 321.788 225.832 316.66 226.643C318.038 227.485 319.66 227.963 321.401 227.931C326.246 227.839 330.101 223.861 330.015 219.044L329.648 199.413C329.558 194.592 325.559 190.76 320.714 190.847C316.927 190.919 313.755 193.37 312.588 196.736C316.285 196.213 320.164 197.011 322.682 200.009Z" fill="#C6C6C6"/>
<path opacity="0.5" d="M315.209 199.679C315.201 199.178 315.599 198.763 316.106 198.753C316.607 198.745 317.024 199.143 317.034 199.645L317.445 221.823C317.454 222.324 317.055 222.738 316.55 222.748C316.046 222.757 315.629 222.358 315.617 221.858L315.209 199.679Z" fill="white"/>
<path d="M328.398 195.878L328.891 222.617C334.758 220.885 338.983 215.435 338.864 209.062C338.747 202.682 334.32 197.395 328.398 195.878Z" fill="#909090"/>
<path d="M334.807 214.246C330.287 211.464 329.068 207.437 328.524 202.582L328.891 222.617C332.684 221.5 335.782 218.82 337.475 215.346C336.54 215.112 335.64 214.76 334.807 214.246Z" fill="#DADADA"/>
<path d="M333.135 216.439C333.135 216.439 339.029 262.183 290.768 261.775" stroke="#2C343F" stroke-width="3.2813" stroke-miterlimit="10" stroke-linecap="round" stroke-linejoin="round"/>
<path d="M292.512 261.925C292.554 264.134 290.784 265.957 288.565 265.998L283.17 266.098C280.948 266.138 279.113 264.383 279.075 262.174C279.035 259.968 280.8 258.141 283.02 258.101L288.417 258.001C290.634 257.959 292.469 259.717 292.512 261.925Z" fill="#232A33"/>
<path d="M205.192 211.539C205.225 213.423 206.793 214.923 208.687 214.887C210.585 214.852 212.091 213.295 212.057 211.411C212.023 209.525 210.458 208.025 208.56 208.061C206.665 208.094 205.157 209.651 205.192 211.539Z" fill="#636363"/>
<path d="M235.753 201.152C235.663 196.332 231.666 192.499 226.82 192.589C221.977 192.681 218.118 196.656 218.21 201.476L218.573 221.109C218.663 225.926 222.661 229.762 227.504 229.671C232.354 229.582 236.208 225.603 236.119 220.784L235.753 201.152Z" fill="#464F5B"/>
<path d="M225.189 201.814C221.486 206.572 221.069 212.025 222.255 217.761C223.269 222.674 227.041 227.587 232.197 228.206C230.851 229.099 229.242 229.64 227.504 229.669C222.661 229.761 218.663 225.925 218.573 221.107L218.21 201.474C218.118 196.655 221.977 192.679 226.82 192.587C230.607 192.519 233.869 194.85 235.159 198.171C231.444 197.785 227.596 198.729 225.189 201.814Z" fill="#C6C6C6"/>
<path opacity="0.5" d="M232.648 201.208C232.64 200.707 232.221 200.309 231.717 200.316C231.211 200.328 230.809 200.743 230.817 201.244L231.23 223.422C231.239 223.923 231.654 224.322 232.16 224.314C232.661 224.301 233.065 223.891 233.059 223.385L232.648 201.208Z" fill="white"/>
<path d="M219.327 197.902L219.82 224.641C213.897 223.126 209.473 217.837 209.354 211.46C209.236 205.082 213.464 199.637 219.327 197.902Z" fill="#909090"/>
<path d="M213.597 216.494C218.017 213.544 219.083 209.48 219.452 204.603L219.819 224.641C215.994 223.661 212.797 221.097 210.979 217.691C211.904 217.426 212.787 217.035 213.597 216.494Z" fill="#DADADA"/>
</svg>
