<svg width="179" height="202" viewBox="0 0 179 202" fill="none" xmlns="http://www.w3.org/2000/svg">
<rect y="8" width="179" height="177" rx="20" fill="black"/>
<path d="M133.368 126.944C133.453 127.541 133.496 128.437 133.496 129.632C133.496 130.741 133.24 132.277 132.728 134.24H105.592L84.6 101.6C83.576 99.9787 82.5093 99.04 81.4 98.784L77.56 102.368V125.664C79.5227 126.517 82.5093 126.944 86.52 126.944C86.6053 127.456 86.648 128.309 86.648 129.504C86.648 130.699 86.4347 132.277 86.008 134.24H48.248C48.248 133.643 48.248 132.661 48.248 131.296C48.248 129.931 48.504 128.48 49.016 126.944C51.6613 126.517 53.6667 125.792 55.032 124.768C56.3973 123.659 57.08 121.824 57.08 119.264V59.616C54.9467 58.6773 51.9173 58.208 47.992 58.208C47.992 57.696 47.992 56.8427 47.992 55.648C47.992 54.368 48.2053 52.832 48.632 51.04H86.264C86.264 51.7227 86.264 52.7467 86.264 54.112C86.264 55.392 86.0507 56.7573 85.624 58.208C82.9787 58.6347 80.9733 59.4027 79.608 60.512C78.2427 61.536 77.56 63.328 77.56 65.888V90.976L110.2 59.616C108.237 58.592 105.336 58.08 101.496 58.08C101.24 57.2267 101.112 56.2027 101.112 55.008C101.112 53.8133 101.411 52.4907 102.008 51.04H133.112C133.112 54.2827 132.984 56.6293 132.728 58.08C127.437 58.08 122.531 60.1707 118.008 64.352L95.992 85.088C98.808 86.1973 101.624 88.8853 104.44 93.152L121.08 119.008C123.043 122.165 124.835 124.256 126.456 125.28C128.077 126.219 130.381 126.773 133.368 126.944Z" fill="white"/>
</svg>
